<svg width="34" height="39" viewBox="0 0 34 39" fill="none" xmlns="http://www.w3.org/2000/svg">
<path d="M15.5833 27.625H18.4167V21.125H24.0833V17.875H18.4167V11.375H15.5833V17.875H9.91668V21.125H15.5833V27.625ZM17 35.75C15.0403 35.75 13.1986 35.3234 11.475 34.4703C9.7514 33.6172 8.25209 32.4594 6.97709 30.9969C5.70209 29.5344 4.69272 27.8146 3.94897 25.8375C3.20522 23.8604 2.83334 21.7479 2.83334 19.5C2.83334 17.2521 3.20522 15.1396 3.94897 13.1625C4.69272 11.1854 5.70209 9.46563 6.97709 8.00313C8.25209 6.54063 9.7514 5.38281 11.475 4.52969C13.1986 3.67656 15.0403 3.25 17 3.25C18.9597 3.25 20.8014 3.67656 22.525 4.52969C24.2486 5.38281 25.7479 6.54063 27.0229 8.00313C28.2979 9.46563 29.3073 11.1854 30.0511 13.1625C30.7948 15.1396 31.1667 17.2521 31.1667 19.5C31.1667 21.7479 30.7948 23.8604 30.0511 25.8375C29.3073 27.8146 28.2979 29.5344 27.0229 30.9969C25.7479 32.4594 24.2486 33.6172 22.525 34.4703C20.8014 35.3234 18.9597 35.75 17 35.75ZM17 32.5C20.1639 32.5 22.8438 31.2406 25.0396 28.7219C27.2354 26.2031 28.3333 23.1292 28.3333 19.5C28.3333 15.8708 27.2354 12.7969 25.0396 10.2781C22.8438 7.75938 20.1639 6.5 17 6.5C13.8361 6.5 11.1563 7.75938 8.96043 10.2781C6.76459 12.7969 5.66668 15.8708 5.66668 19.5C5.66668 23.1292 6.76459 26.2031 8.96043 28.7219C11.1563 31.2406 13.8361 32.5 17 32.5Z" fill="#E8EAED"/>
</svg>
