<svg width="47" height="50" viewBox="0 0 47 50" fill="none" xmlns="http://www.w3.org/2000/svg">
<path d="M16.45 35.4167L23.5 27.9167L30.55 35.4167L33.2917 32.5L26.2417 25L33.2917 17.5L30.55 14.5833L23.5 22.0833L16.45 14.5833L13.7083 17.5L20.7583 25L13.7083 32.5L16.45 35.4167ZM23.5 45.8333C20.791 45.8333 18.2451 45.2865 15.8625 44.1927C13.4799 43.099 11.4073 41.6146 9.64478 39.7396C7.88228 37.8646 6.48697 35.6597 5.45884 33.125C4.43072 30.5903 3.91666 27.882 3.91666 25C3.91666 22.1181 4.43072 19.4097 5.45884 16.875C6.48697 14.3403 7.88228 12.1354 9.64478 10.2604C11.4073 8.38542 13.4799 6.90105 15.8625 5.8073C18.2451 4.71355 20.791 4.16667 23.5 4.16667C26.209 4.16667 28.7549 4.71355 31.1375 5.8073C33.5201 6.90105 35.5927 8.38542 37.3552 10.2604C39.1177 12.1354 40.513 14.3403 41.5411 16.875C42.5693 19.4097 43.0833 22.1181 43.0833 25C43.0833 27.882 42.5693 30.5903 41.5411 33.125C40.513 35.6597 39.1177 37.8646 37.3552 39.7396C35.5927 41.6146 33.5201 43.099 31.1375 44.1927C28.7549 45.2865 26.209 45.8333 23.5 45.8333ZM23.5 41.6667C27.8736 41.6667 31.5781 40.0521 34.6135 36.8229C37.6489 33.5938 39.1667 29.6528 39.1667 25C39.1667 20.3472 37.6489 16.4063 34.6135 13.1771C31.5781 9.94792 27.8736 8.33334 23.5 8.33334C19.1264 8.33334 15.4219 9.94792 12.3864 13.1771C9.35103 16.4063 7.83332 20.3472 7.83332 25C7.83332 29.6528 9.35103 33.5938 12.3864 36.8229C15.4219 40.0521 19.1264 41.6667 23.5 41.6667Z" fill="#E8EAED"/>
</svg>
