<svg width="60" height="55" viewBox="0 0 60 55" fill="none" xmlns="http://www.w3.org/2000/svg">
<path d="M7.5 48.125V43.5417H12.5V6.875H37.5V9.16667H47.5V43.5417H52.5V48.125H42.5V13.75H37.5V48.125H7.5ZM27.5 29.7917C28.2083 29.7917 28.8021 29.572 29.2812 29.1328C29.7604 28.6936 30 28.1493 30 27.5C30 26.8507 29.7604 26.3064 29.2812 25.8672C28.8021 25.428 28.2083 25.2083 27.5 25.2083C26.7917 25.2083 26.1979 25.428 25.7188 25.8672C25.2396 26.3064 25 26.8507 25 27.5C25 28.1493 25.2396 28.6936 25.7188 29.1328C26.1979 29.572 26.7917 29.7917 27.5 29.7917ZM17.5 43.5417H32.5V11.4583H17.5V43.5417Z" fill="#E8EAED"/>
</svg>
